<svg width="20" height="21" viewBox="0 0 20 21" fill="none" xmlns="http://www.w3.org/2000/svg">
<g id="logos:facebook" clip-path="url(#clip0_7115_4291)">
<path id="Vector" d="M20 10.3333C20 4.81044 15.5228 0.333252 10 0.333252C4.47719 0.333252 0 4.81036 0 10.3333C0 15.3245 3.65687 19.4616 8.4375 20.2118V13.2239H5.89844V10.3333H8.4375V8.13013C8.4375 5.62388 9.93047 4.2395 12.2146 4.2395C13.3088 4.2395 14.4531 4.43482 14.4531 4.43482V6.89575H13.1922C11.9498 6.89575 11.5625 7.66661 11.5625 8.45747V10.3333H14.3359L13.8926 13.2239H11.5625V20.2118C16.3431 19.4616 20 15.3246 20 10.3333Z" fill="#1877F2"/>
<path id="Vector_2" d="M13.8926 13.2239L14.3359 10.3333H11.5625V8.45747C11.5625 7.66653 11.9499 6.89575 13.1922 6.89575H14.4531V4.43481C14.4531 4.43481 13.3088 4.2395 12.2146 4.2395C9.93047 4.2395 8.4375 5.62388 8.4375 8.13013V10.3333H5.89844V13.2239H8.4375V20.2118C8.95439 20.2928 9.4768 20.3334 10 20.3333C10.5232 20.3334 11.0456 20.2928 11.5625 20.2118V13.2239H13.8926Z" fill="white"/>
</g>
<defs>
<clipPath id="clip0_7115_4291">
<rect width="20" height="20" fill="white" transform="translate(0 0.333252)"/>
</clipPath>
</defs>
</svg>
