<svg width="20" height="21" viewBox="0 0 20 21" fill="none" xmlns="http://www.w3.org/2000/svg">
<g id="logos:telegram" clip-path="url(#clip0_7115_4299)">
<path id="Vector" d="M10 0.333252C7.34844 0.333252 4.80312 1.38747 2.92969 3.26216C1.05432 5.13759 0.000519484 7.68103 0 10.3333C0 12.9843 1.05469 15.5297 2.92969 17.4043C4.80312 19.279 7.34844 20.3333 10 20.3333C12.6516 20.3333 15.1969 19.279 17.0703 17.4043C18.9453 15.5297 20 12.9843 20 10.3333C20 7.68216 18.9453 5.13685 17.0703 3.26216C15.1969 1.38747 12.6516 0.333252 10 0.333252Z" fill="url(#paint0_linear_7115_4299)"/>
<path id="Vector_2" d="M4.52768 10.2273C7.4433 8.9573 9.38705 8.11995 10.3589 7.71542C13.1371 6.56026 13.7136 6.35964 14.0902 6.35284C14.173 6.35151 14.3574 6.37198 14.4777 6.46925C14.5777 6.55128 14.6058 6.66222 14.6199 6.74011C14.6324 6.81792 14.6495 6.99526 14.6355 7.1337C14.4855 8.71495 13.8339 12.5521 13.5027 14.3232C13.3636 15.0726 13.0871 15.3239 12.8199 15.3484C12.2386 15.4018 11.798 14.9646 11.2355 14.596C10.3558 14.019 9.85892 13.66 9.00424 13.097C8.01674 12.4464 8.65736 12.0887 9.21986 11.5043C9.36674 11.3514 11.9261 9.02401 11.9745 8.81292C11.9808 8.78651 11.9871 8.68808 11.9277 8.6362C11.8699 8.58417 11.7839 8.60198 11.7214 8.61605C11.6324 8.63605 10.2277 9.56542 7.50268 11.404C7.10424 11.6781 6.7433 11.8117 6.4183 11.8046C6.06205 11.797 5.37455 11.6028 4.86361 11.4368C4.23861 11.2332 3.74018 11.1256 3.78393 10.7798C3.8058 10.5998 4.05424 10.4156 4.52768 10.2273Z" fill="white"/>
</g>
<defs>
<linearGradient id="paint0_linear_7115_4299" x1="10" y1="0.333252" x2="10" y2="20.3333" gradientUnits="userSpaceOnUse">
<stop stop-color="#2AABEE"/>
<stop offset="1" stop-color="#229ED9"/>
</linearGradient>
<clipPath id="clip0_7115_4299">
<rect width="20" height="20" fill="white" transform="translate(0 0.333252)"/>
</clipPath>
</defs>
</svg>
