<svg width="19" height="17" viewBox="0 0 19 17" fill="none" xmlns="http://www.w3.org/2000/svg">
<g id="logos:twitter" clip-path="url(#clip0_7115_4303)">
<path id="Vector" d="M19 2.34525C18.2885 2.66697 17.5339 2.87815 16.7611 2.97177C17.566 2.47934 18.184 1.69957 18.4751 0.770477C17.7099 1.23395 16.8727 1.5605 15.9998 1.73601C15.2887 0.96275 14.2757 0.479492 13.1545 0.479492C11.0017 0.479492 9.25627 2.26101 9.25627 4.45828C9.25627 4.77017 9.29078 5.07381 9.3572 5.3651C6.11755 5.19911 3.24529 3.6151 1.32265 1.20783C0.987184 1.79548 0.794957 2.47904 0.794957 3.20813C0.794957 4.58858 1.48319 5.80639 2.52908 6.51995C1.91006 6.50016 1.30465 6.3295 0.763414 6.02222C0.763191 6.03889 0.763191 6.05555 0.763191 6.0723C0.763191 8.0001 2.10685 9.60828 3.89003 9.97381C3.31601 10.1332 2.7139 10.1565 2.12971 10.042C2.62571 11.6228 4.06533 12.7731 5.77103 12.8053C4.43695 13.8724 2.75611 14.5085 0.929887 14.5085C0.615199 14.5085 0.304965 14.4896 0 14.4529C1.72507 15.5818 3.77402 16.2406 5.97535 16.2406C13.1454 16.2406 17.0662 10.1776 17.0662 4.91972C17.0662 4.74714 17.0624 4.57555 17.0549 4.40495C17.818 3.84183 18.4767 3.14435 19 2.34525Z" fill="#55ACEE"/>
</g>
<defs>
<clipPath id="clip0_7115_4303">
<rect width="19" height="15.8333" fill="white" transform="translate(0 0.416748)"/>
</clipPath>
</defs>
</svg>
