<svg width="19" height="13" viewBox="0 0 19 13" fill="none" xmlns="http://www.w3.org/2000/svg">
<g id="logos:youtube-icon" clip-path="url(#clip0_7115_4295)">
<path id="Vector" d="M18.5804 1.97565C18.4714 1.59379 18.2588 1.24566 17.9638 0.965923C17.6688 0.68619 17.3016 0.484613 16.8989 0.381267C15.4245 0 9.49037 0 9.49037 0C9.49037 0 3.55598 0.0115407 2.08155 0.392807C1.67881 0.49616 1.31164 0.697747 1.01662 0.977494C0.721602 1.25724 0.509023 1.60539 0.400053 1.98726C-0.0459271 4.47119 -0.218931 8.25613 0.412299 10.6407C0.52128 11.0226 0.733864 11.3707 1.02888 11.6504C1.3239 11.9302 1.69106 12.1317 2.0938 12.2351C3.56823 12.6164 9.50246 12.6164 9.50246 12.6164C9.50246 12.6164 15.4366 12.6164 16.911 12.2351C17.3137 12.1317 17.6809 11.9302 17.9759 11.6504C18.271 11.3707 18.4836 11.0226 18.5926 10.6407C19.063 8.15325 19.2079 4.3707 18.5804 1.97572V1.97565Z" fill="#FF0000"/>
<path id="Vector_2" d="M7.60156 9.01245L12.5243 6.30896L7.60156 3.60547V9.01245Z" fill="white"/>
</g>
<defs>
<clipPath id="clip0_7115_4295">
<rect width="19" height="12.6667" fill="white"/>
</clipPath>
</defs>
</svg>
